<svg xmlns="http://www.w3.org/2000/svg" height="800" width="1200" viewBox="-3.968745 -6.614575 34.39579 39.68745"><path fill="#b90005" d="M0 0h26.4583v26.4583H0z"/><path d="M13.911 10.584c0 .4755-.592.4473-.592.4473h-.592v-.8593h.592c.609-.005.592.412.592.412m-1.184-1.7224h.4515c.4686.0247.4503.3733.4503.3733 0 .4333-.5172.4403-.5172.4403h-.3846zm1.075.9826s.4043-.1726.4016-.6304c0 0 .0656-.7503-.9332-.8418H12.168v3.1454h1.264s1.0566.003 1.0566-.8875c0 0 .0262-.6061-.6865-.7857m-2.8548-2.0885h4.6438v4.3762h-4.6438zM8.5557 10.584c0 .4755-.592.4473-.592.4473h-.592v-.8593h.592c.609-.005.592.412.592.412m-1.184-1.7224h.4516c.4686.0247.4502.3733.4502.3733 0 .4333-.5172.4403-.5172.4403h-.3846zm1.075.9826s.4043-.1726.4017-.6304c0 0 .0656-.7503-.9332-.8418H6.8126v3.1454h1.264s1.0566.003 1.0566-.8875c0 0 .0263-.6061-.6865-.7857M5.592 7.7557h4.6439v4.3762h-4.644zm14.4067.8418v.5811s-.567-.3486-1.1931-.3556c0 0-1.1695-.0229-1.222 1.121 0 0-.0394 1.052 1.2076 1.1119 0 0 .525.0632 1.2364-.3906v.6018s-.9555.5672-2.0607.1303c0 0-.9293-.3395-.9648-1.4534 0 0-.0393-1.1458 1.201-1.526 0 0 .3308-.1268.9254-.0705 0 0 .3557.0352.8702.25m-3.6962 3.5345h4.6439V7.7557h-4.6439z" fill="#fff"/><g style="line-height:1.25"><path style="-inkscape-font-specification:'BBC Reith Sans Medium'" d="M6.7281 18.6716q-.3875-.605-.7955-1.2238-.4011-.6187-.8022-1.2238-.4012-.6051-.7955-1.1762v3.6238h-.8295v-4.8612h.8703q.6119.8838 1.2034 1.7813.5983.8975 1.1898 1.8221v-3.6034h.8295v4.8612zm1.996-4.8612h3.25v.7275H9.5876v1.2578h2.128v.7275h-2.128v1.421h2.5156v.7274h-3.379zm8.0799 4.8612q-.2516-.8702-.4964-1.7473-.2447-.877-.4759-1.7541-.2312.8702-.476 1.7541-.2379.877-.4895 1.7473h-.911q-.3604-1.1898-.6867-2.4068-.3264-1.217-.6187-2.4544h.9314q.1972.9926.4148 1.992.2243.9927.4691 1.9446.2584-.9383.4963-1.8697.2448-.9315.4692-1.863h.8498q.2244.9247.4624 1.8426.238.9178.4895 1.8357.2447-.945.4623-1.9241.2176-.979.4147-1.9581h.9111q-.2991 1.2374-.6255 2.4544-.3263 1.217-.6799 2.4068zm4.217.102q-.3942 0-.7818-.0884-.3875-.0884-.7275-.272v-.7886q.7003.4351 1.523.4351.51 0 .7819-.1903.2787-.1904.2787-.5236 0-.1903-.0816-.3127-.0815-.1292-.2243-.2108-.136-.0884-.3196-.1428-.1768-.0544-.374-.102-.3603-.0883-.6594-.1971-.2924-.1156-.51-.272-.2107-.1563-.3263-.3875-.1156-.2312-.1156-.5643 0-.4488.2244-.7683.2244-.3264.639-.5031.4148-.1768.986-.1768.3739 0 .741.0884.3672.0884.6527.238v.7682q-.272-.17-.639-.272-.3604-.1087-.7684-.1087-.4623 0-.7206.1768-.2584.17-.2584.4895 0 .2311.1224.3671.1224.1292.3467.2108.2244.0748.5235.1496.3264.0816.6187.1835.2992.102.5236.2652.2311.1564.3603.4011.1292.2448.1292.612 0 .469-.2312.8022-.2311.3332-.673.5167-.4352.1768-1.0403.1768z" aria-label="NEWS" font-weight="500" font-size="40" font-family="BBC Reith Sans" letter-spacing="0" word-spacing="0" fill="#fff"/></g></svg>